<?xml version="1.0" encoding="UTF-8" standalone="no"?>
<!DOCTYPE svg PUBLIC "-//W3C//DTD SVG 1.1//EN" "http://www.w3.org/Graphics/SVG/1.1/DTD/svg11.dtd">
<svg width="100%" height="100%" viewBox="0 0 1488 450" version="1.1" xmlns="http://www.w3.org/2000/svg" xmlns:xlink="http://www.w3.org/1999/xlink" xml:space="preserve" xmlns:serif="http://www.serif.com/" style="fill-rule:evenodd;clip-rule:evenodd;stroke-linejoin:round;stroke-miterlimit:2;">
    <g transform="matrix(4.16667,0,0,4.16667,0,0)">
        <path d="M120.126,15.756L119.187,12.996L114.086,12.996L113.146,15.756L110.526,15.756L115.247,2.256L118.187,2.256L123.006,15.756L120.126,15.756ZM117.247,7.396C116.986,6.656 116.786,5.996 116.626,5.236L116.606,5.236C116.446,5.936 116.227,6.716 115.966,7.496L114.747,10.936L118.506,10.936L117.247,7.396Z" style="fill:rgb(212,17,69);fill-rule:nonzero;"/>
        <path d="M135.046,5.056C133.966,4.636 132.726,4.376 131.466,4.376C128.806,4.376 126.886,6.056 126.886,9.076C126.886,11.936 128.446,13.616 131.186,13.616C131.826,13.616 132.386,13.536 132.906,13.376L132.906,8.676L135.506,8.676L135.506,15.116C134.166,15.656 132.506,15.956 130.886,15.956C126.606,15.956 124.066,13.436 124.066,9.316C124.066,5.076 126.946,2.056 131.626,2.056C132.966,2.056 134.286,2.296 135.446,2.636L135.046,5.056Z" style="fill:rgb(212,17,69);fill-rule:nonzero;"/>
        <path d="M144.926,15.756L141.926,15.756L137.226,2.256L140.066,2.256L142.686,10.156C142.946,10.916 143.246,11.816 143.486,12.796L143.526,12.796C143.726,11.876 143.946,11.136 144.326,9.996L146.986,2.256L149.646,2.256L144.926,15.756Z" style="fill:rgb(212,17,69);fill-rule:nonzero;"/>
        <path d="M158.736,15.756L156.216,15.756L161.376,2.256L163.876,2.256L158.736,15.756Z" style="fill:rgb(96,97,76);fill-rule:nonzero;"/>
        <path d="M179.855,15.756L178.916,12.996L173.816,12.996L172.876,15.756L170.256,15.756L174.977,2.256L177.916,2.256L182.736,15.756L179.855,15.756ZM176.977,7.396C176.716,6.656 176.516,5.996 176.355,5.236L176.336,5.236C176.176,5.936 175.956,6.716 175.695,7.496L174.477,10.936L178.236,10.936L176.977,7.396Z" style="fill:rgb(96,97,76);fill-rule:nonzero;"/>
        <path d="M191.695,15.756L187.355,9.276L187.355,15.756L184.756,15.756L184.756,2.256L187.355,2.256L187.355,8.376L191.735,2.256L194.896,2.256L189.955,8.776L195.115,15.756L191.695,15.756Z" style="fill:rgb(96,97,76);fill-rule:nonzero;"/>
        <path d="M205.516,15.756L204.576,12.996L199.476,12.996L198.535,15.756L195.916,15.756L200.635,2.256L203.576,2.256L208.396,15.756L205.516,15.756ZM202.635,7.396C202.375,6.656 202.176,5.996 202.016,5.236L201.996,5.236C201.836,5.936 201.615,6.716 201.355,7.496L200.135,10.936L203.896,10.936L202.635,7.396Z" style="fill:rgb(96,97,76);fill-rule:nonzero;"/>
        <path d="M214.176,15.836C212.775,15.836 211.555,15.776 210.415,15.736L210.415,2.276C211.475,2.236 213.115,2.176 214.775,2.176C218.955,2.176 221.615,4.036 221.615,8.776C221.615,13.416 218.575,15.836 214.176,15.836ZM214.596,4.356C213.995,4.356 213.436,4.376 213.016,4.416L213.016,13.516C213.375,13.576 213.915,13.616 214.436,13.616C216.975,13.616 218.814,12.176 218.814,8.976C218.814,6.076 217.676,4.356 214.596,4.356Z" style="fill:rgb(96,97,76);fill-rule:nonzero;"/>
        <path d="M224.355,15.756L224.355,2.256L231.695,2.256L231.695,4.436L226.955,4.436L226.955,7.756L231.455,7.756L231.455,9.876L226.955,9.876L226.955,13.536L231.695,13.536L231.695,15.756L224.355,15.756Z" style="fill:rgb(96,97,76);fill-rule:nonzero;"/>
        <path d="M247.674,15.756L246.715,9.316C246.514,8.036 246.395,7.036 246.295,6.096L246.254,6.096C246.074,6.956 245.855,7.916 245.514,8.976L243.375,15.756L240.795,15.756L238.734,9.496C238.375,8.396 238.035,7.176 237.875,6.096L237.834,6.096C237.754,7.296 237.615,8.356 237.455,9.536L236.695,15.756L234.055,15.756L236.135,2.256L239.174,2.256L241.434,9.196C241.754,10.156 241.994,11.076 242.174,12.036L242.215,12.036C242.414,10.996 242.635,10.236 242.975,9.236L245.295,2.256L248.314,2.256L250.414,15.756L247.674,15.756Z" style="fill:rgb(96,97,76);fill-rule:nonzero;"/>
        <rect x="253.035" y="2.256" width="2.6" height="13.5" style="fill:rgb(96,97,76);fill-rule:nonzero;"/>
        <path d="M261.535,15.976C260.574,15.976 259.614,15.876 258.773,15.656L258.933,13.236C259.693,13.496 260.773,13.716 261.754,13.716C263.074,13.716 264.094,13.176 264.094,11.936C264.094,9.356 258.433,10.536 258.433,6.096C258.433,3.696 260.334,2.036 263.574,2.036C264.334,2.036 265.215,2.136 266.014,2.276L265.875,4.556C265.113,4.336 264.273,4.196 263.455,4.196C261.954,4.196 261.193,4.876 261.193,5.836C261.193,8.256 266.875,7.356 266.875,11.576C266.875,14.116 264.854,15.976 261.535,15.976Z" style="fill:rgb(96,97,76);fill-rule:nonzero;"/>
        <path d="M275.295,15.936C270.574,15.936 269.055,12.796 269.055,9.436C269.055,5.156 271.295,2.156 275.814,2.156C276.773,2.156 277.795,2.276 278.674,2.516L278.395,4.876C277.514,4.616 276.594,4.476 275.674,4.476C273.154,4.476 271.914,6.376 271.914,8.996C271.914,11.936 273.135,13.576 275.854,13.576C276.674,13.576 277.773,13.336 278.475,13.016L278.773,15.336C277.773,15.696 276.555,15.936 275.295,15.936Z" style="fill:rgb(96,97,76);fill-rule:nonzero;"/>
        <path d="M290.074,15.756L290.074,9.896L284.354,9.896L284.354,15.756L281.754,15.756L281.754,2.256L284.354,2.256L284.354,7.656L290.074,7.656L290.074,2.256L292.674,2.256L292.674,15.756L290.074,15.756Z" style="fill:rgb(96,97,76);fill-rule:nonzero;"/>
        <path d="M296.475,15.756L296.475,2.256L303.814,2.256L303.814,4.436L299.074,4.436L299.074,7.756L303.574,7.756L303.574,9.876L299.074,9.876L299.074,13.536L303.814,13.536L303.814,15.756L296.475,15.756Z" style="fill:rgb(96,97,76);fill-rule:nonzero;"/>
        <path d="M313.395,15.756L309.635,10.176L309.535,10.176L309.535,15.756L306.936,15.756L306.936,2.256C307.994,2.196 309.254,2.176 310.814,2.176C313.795,2.176 315.715,3.216 315.715,5.976C315.715,7.976 314.314,9.416 312.275,9.736C312.654,10.236 313.035,10.756 313.375,11.216L316.615,15.756L313.395,15.756ZM310.555,4.296C310.174,4.296 309.795,4.316 309.535,4.356L309.535,8.256C309.715,8.276 310.074,8.296 310.475,8.296C312.035,8.296 312.994,7.496 312.994,6.236C312.994,4.936 312.195,4.296 310.555,4.296Z" style="fill:rgb(96,97,76);fill-rule:nonzero;"/>
        <path d="M122.207,25.056C121.126,24.636 119.886,24.376 118.626,24.376C115.966,24.376 114.046,26.056 114.046,29.076C114.046,31.936 115.606,33.616 118.346,33.616C118.986,33.616 119.546,33.536 120.066,33.376L120.066,28.676L122.667,28.676L122.667,35.116C121.326,35.656 119.667,35.956 118.046,35.956C113.766,35.956 111.227,33.436 111.227,29.316C111.227,25.076 114.106,22.056 118.786,22.056C120.126,22.056 121.446,22.296 122.606,22.636L122.207,25.056Z" style="fill:rgb(96,97,76);fill-rule:nonzero;"/>
        <path d="M125.986,35.756L125.986,22.256L133.326,22.256L133.326,24.436L128.586,24.436L128.586,27.756L133.086,27.756L133.086,29.876L128.586,29.876L128.586,33.536L133.326,33.536L133.326,35.756L125.986,35.756Z" style="fill:rgb(96,97,76);fill-rule:nonzero;"/>
        <path d="M138.926,35.976C137.966,35.976 137.006,35.876 136.166,35.656L136.326,33.236C137.086,33.496 138.166,33.716 139.146,33.716C140.466,33.716 141.486,33.176 141.486,31.936C141.486,29.356 135.826,30.536 135.826,26.096C135.826,23.696 137.726,22.036 140.966,22.036C141.726,22.036 142.606,22.136 143.406,22.276L143.266,24.556C142.506,24.336 141.666,24.196 140.846,24.196C139.346,24.196 138.586,24.876 138.586,25.836C138.586,28.256 144.266,27.356 144.266,31.576C144.266,34.116 142.246,35.976 138.926,35.976Z" style="fill:rgb(96,97,76);fill-rule:nonzero;"/>
        <path d="M155.126,35.756L154.186,32.996L149.086,32.996L148.146,35.756L145.526,35.756L150.246,22.256L153.186,22.256L158.006,35.756L155.126,35.756ZM152.246,27.396C151.986,26.656 151.786,25.996 151.626,25.236L151.606,25.236C151.446,25.936 151.226,26.716 150.966,27.496L149.746,30.936L153.506,30.936L152.246,27.396Z" style="fill:rgb(96,97,76);fill-rule:nonzero;"/>
        <path d="M167.826,35.756L163.865,28.936C163.266,27.916 162.806,26.916 162.405,26.036C162.485,27.196 162.525,29.316 162.525,30.936L162.525,35.756L160.005,35.756L160.005,22.256L163.385,22.256L167.146,28.696C167.766,29.736 168.306,30.856 168.806,31.876C168.706,30.516 168.666,28.116 168.666,26.456L168.666,22.256L171.186,22.256L171.186,35.756L167.826,35.756Z" style="fill:rgb(96,97,76);fill-rule:nonzero;"/>
        <path d="M184.865,25.056C183.785,24.636 182.545,24.376 181.285,24.376C178.625,24.376 176.705,26.056 176.705,29.076C176.705,31.936 178.266,33.616 181.006,33.616C181.646,33.616 182.205,33.536 182.726,33.376L182.726,28.676L185.326,28.676L185.326,35.116C183.985,35.656 182.326,35.956 180.705,35.956C176.426,35.956 173.886,33.436 173.886,29.316C173.886,25.076 176.766,22.056 181.445,22.056C182.785,22.056 184.105,22.296 185.266,22.636L184.865,25.056Z" style="fill:rgb(96,97,76);fill-rule:nonzero;"/>
        <path d="M194.785,35.756L191.785,35.756L187.086,22.256L189.926,22.256L192.545,30.156C192.805,30.916 193.105,31.816 193.346,32.796L193.385,32.796C193.586,31.876 193.805,31.136 194.186,29.996L196.846,22.256L199.506,22.256L194.785,35.756Z" style="fill:rgb(96,97,76);fill-rule:nonzero;"/>
        <path d="M201.564,35.756L201.564,22.256L208.904,22.256L208.904,24.436L204.165,24.436L204.165,27.756L208.665,27.756L208.665,29.876L204.165,29.876L204.165,33.536L208.904,33.536L208.904,35.756L201.564,35.756Z" style="fill:rgb(96,97,76);fill-rule:nonzero;"/>
        <path d="M218.465,35.756L214.705,30.176L214.605,30.176L214.605,35.756L212.005,35.756L212.005,22.256C213.064,22.196 214.325,22.176 215.885,22.176C218.865,22.176 220.785,23.216 220.785,25.976C220.785,27.976 219.385,29.416 217.346,29.736C217.725,30.236 218.105,30.756 218.445,31.216L221.686,35.756L218.465,35.756ZM215.625,24.296C215.245,24.296 214.865,24.316 214.605,24.356L214.605,28.256C214.785,28.276 215.145,28.296 215.545,28.296C217.105,28.296 218.064,27.496 218.064,26.236C218.064,24.936 217.266,24.296 215.625,24.296Z" style="fill:rgb(96,97,76);fill-rule:nonzero;"/>
        <path d="M224.084,35.756L224.084,22.256L231.424,22.256L231.424,24.436L226.684,24.436L226.684,27.756L231.184,27.756L231.184,29.876L226.684,29.876L226.684,33.536L231.424,33.536L231.424,35.756L224.084,35.756Z" style="fill:rgb(96,97,76);fill-rule:nonzero;"/>
        <rect x="234.525" y="22.256" width="2.6" height="13.5" style="fill:rgb(96,97,76);fill-rule:nonzero;"/>
        <path d="M248.725,35.756L244.764,28.936C244.164,27.916 243.705,26.916 243.305,26.036C243.385,27.196 243.424,29.316 243.424,30.936L243.424,35.756L240.904,35.756L240.904,22.256L244.285,22.256L248.045,28.696C248.664,29.736 249.205,30.856 249.705,31.876C249.604,30.516 249.564,28.116 249.564,26.456L249.564,22.256L252.084,22.256L252.084,35.756L248.725,35.756Z" style="fill:rgb(96,97,76);fill-rule:nonzero;"/>
        <path d="M273.725,35.756L272.764,29.316C272.564,28.036 272.443,27.036 272.344,26.096L272.305,26.096C272.125,26.956 271.904,27.916 271.564,28.976L269.424,35.756L266.844,35.756L264.785,29.496C264.424,28.396 264.084,27.176 263.924,26.096L263.885,26.096C263.805,27.296 263.664,28.356 263.504,29.536L262.744,35.756L260.104,35.756L262.184,22.256L265.225,22.256L267.484,29.196C267.805,30.156 268.045,31.076 268.225,32.036L268.264,32.036C268.465,30.996 268.684,30.236 269.023,29.236L271.344,22.256L274.365,22.256L276.465,35.756L273.725,35.756Z" style="fill:rgb(96,97,76);fill-rule:nonzero;"/>
        <path d="M284.283,35.976C280.023,35.976 279.064,33.656 279.064,31.076L279.064,22.256L281.664,22.256L281.664,30.916C281.664,32.616 282.223,33.816 284.463,33.816C286.463,33.816 287.303,32.976 287.303,30.676L287.303,22.256L289.883,22.256L289.883,30.516C289.883,34.216 287.844,35.976 284.283,35.976ZM282.264,21.236C281.504,21.236 280.883,20.616 280.883,19.856C280.883,19.076 281.504,18.476 282.264,18.476C283.023,18.476 283.643,19.076 283.643,19.856C283.643,20.616 283.023,21.236 282.264,21.236ZM286.303,21.236C285.543,21.236 284.924,20.616 284.924,19.856C284.924,19.076 285.543,18.476 286.303,18.476C287.064,18.476 287.684,19.076 287.684,19.856C287.684,20.616 287.064,21.236 286.303,21.236Z" style="fill:rgb(96,97,76);fill-rule:nonzero;"/>
        <path d="M301.383,35.756L297.424,28.936C296.824,27.916 296.363,26.916 295.963,26.036C296.043,27.196 296.084,29.316 296.084,30.936L296.084,35.756L293.564,35.756L293.564,22.256L296.943,22.256L300.703,28.696C301.324,29.736 301.863,30.856 302.363,31.876C302.264,30.516 302.223,28.116 302.223,26.456L302.223,22.256L304.744,22.256L304.744,35.756L301.383,35.756Z" style="fill:rgb(96,97,76);fill-rule:nonzero;"/>
        <path d="M313.725,35.936C309.004,35.936 307.484,32.796 307.484,29.436C307.484,25.156 309.725,22.156 314.244,22.156C315.203,22.156 316.225,22.276 317.104,22.516L316.824,24.876C315.943,24.616 315.023,24.476 314.104,24.476C311.584,24.476 310.344,26.376 310.344,28.996C310.344,31.936 311.564,33.576 314.283,33.576C315.104,33.576 316.203,33.336 316.904,33.016L317.203,35.336C316.203,35.696 314.984,35.936 313.725,35.936Z" style="fill:rgb(96,97,76);fill-rule:nonzero;"/>
        <path d="M328.504,35.756L328.504,29.896L322.783,29.896L322.783,35.756L320.184,35.756L320.184,22.256L322.783,22.256L322.783,27.656L328.504,27.656L328.504,22.256L331.104,22.256L331.104,35.756L328.504,35.756Z" style="fill:rgb(96,97,76);fill-rule:nonzero;"/>
        <path d="M334.885,35.756L334.885,22.256L342.225,22.256L342.225,24.436L337.484,24.436L337.484,27.756L341.984,27.756L341.984,29.876L337.484,29.876L337.484,33.536L342.225,33.536L342.225,35.756L334.885,35.756Z" style="fill:rgb(96,97,76);fill-rule:nonzero;"/>
        <path d="M353.164,35.756L349.203,28.936C348.604,27.916 348.145,26.916 347.744,26.036C347.824,27.196 347.863,29.316 347.863,30.936L347.863,35.756L345.344,35.756L345.344,22.256L348.725,22.256L352.484,28.696C353.104,29.736 353.645,30.856 354.145,31.876C354.043,30.516 354.004,28.116 354.004,26.456L354.004,22.256L356.523,22.256L356.523,35.756L353.164,35.756Z" style="fill:rgb(96,97,76);fill-rule:nonzero;"/>
        <path d="M74.571,55.768C60.099,85.438 47,108.822 45.312,108C43.624,107.176 53.987,82.456 68.459,52.786C82.929,23.116 96.029,-0.269 97.716,0.555C99.404,1.378 89.041,26.097 74.571,55.768Z" style="fill:rgb(212,17,69);"/>
        <path d="M80.376,0.542C81.965,1.316 72.862,23.556 59.894,50.145C46.926,76.733 35.004,97.598 33.416,96.825C31.826,96.048 40.929,73.806 53.897,47.22C66.865,20.632 78.787,-0.234 80.376,0.542Z" style="fill:rgb(212,17,69);"/>
        <path d="M63.604,0.528C65.094,1.254 57.251,21.016 45.787,44.522C34.323,68.028 23.578,86.374 22.088,85.648C20.598,84.92 28.44,65.157 39.905,41.653C51.369,18.148 62.113,-0.199 63.604,0.528Z" style="fill:rgb(212,17,69);"/>
        <path d="M47.115,0.515C48.507,1.193 41.924,18.476 31.963,38.9C22.003,59.322 12.436,75.15 11.044,74.471C9.652,73.792 16.235,56.508 26.197,36.086C36.157,15.664 45.724,-0.164 47.115,0.515Z" style="fill:rgb(212,17,69);"/>
        <path d="M18.139,33.277C9.682,50.617 1.292,63.925 0,63.295C-1.292,62.665 4.03,47.859 12.488,30.52C20.945,13.18 29.334,-0.129 30.627,0.501C31.919,1.131 26.596,15.935 18.139,33.277Z" style="fill:rgb(212,17,69);"/>
    </g>
</svg>
